<svg width="38.000000" height="30.000000" viewBox="0 0 38 30" fill="none" xmlns="http://www.w3.org/2000/svg" >
	<!-- Logo -->
    <g id="Logo">
        <defs>
		    <clipPath >
			    <rect  width="38.000000" height="30.000000" fill="white" fill-opacity="0"/>
		    </clipPath>
	    </defs>
	    <rect id="Logo" width="38.000000" height="30.000000" fill="#FFFFFF" fill-opacity="0"/>
	    <g clip-path="url(#clip7_1903)">
		    <path id="Vector" d="M12.5394 1.53809L28.5614 1.53809L16.782 19.21L0.76001 19.21L12.5394 1.53809Z" fill="#19B5F1" fill-opacity="1.000000" fill-rule="nonzero"/>
		    <path id="Vector" d="M13.241 20.8477L8.67859 27.6924L25.4606 27.6924L37.24 10.0205L24.8538 10.0205L17.6368 20.8477L13.241 20.8477Z" fill="#CA6AEB" fill-opacity="1.000000" fill-rule="nonzero"/>
	    </g>
    </g>

    <g id="Logo1">
        <path d="M0 0H2.62375L6.66869 12.8457H6.71242L10.7574 0H13.3811L7.9587 16H5.42241L0 0Z" fill="#ffffff"/>
        <path d="M25.0044 10.8343V16H22.4681V11.4743L20.8938 9.66857H15.9087V16H13.3724V0H22.6867L24.9169 2.35429V7.26857L23.3208 8.93714L25.0044 10.8343ZM15.9087 7.47429H21.5498L22.4243 6.56V3.15429L21.5498 2.24H15.9087V7.47429Z" fill="#ffffff"/>
        <path d="M26.0974 0H28.4151L35.6304 11.6343H35.6741V0H38.1011V16H35.7834L28.5681 4.38857H28.5244V16H26.0974V0Z" fill="#ffffff"/>
        <path d="M38.8762 13.9657V11.2686L40.8222 9.25714H46.4414V7.56571L45.6324 6.72H42.1996L41.3906 7.56571V8.29714H38.9637V6.97143L41.1939 4.61714H46.6381L48.8683 6.97143V16H46.6163V14.24L44.8671 16H40.8222L38.8762 13.9657ZM44.6266 13.9657L46.4414 12.1371V11.1771H42.0029L41.3032 11.8857V13.28L41.9591 13.9657H44.6266Z" fill="#ffffff"/>
        <path d="M49.2047 13.8743V12.48H51.6316V13.2114L52.2438 13.8743H55.9608L56.573 13.2114V11.9771L55.939 11.3143H51.2381L49.2921 9.25714V6.69714L51.2818 4.61714H56.7698L58.7813 6.74286V8.13714H56.3544V7.40571L55.7422 6.74286H52.3313L51.7191 7.40571V8.54857L52.3532 9.21143H57.0322L59 11.2914V13.92L57.0103 16H51.2162L49.2047 13.8743Z" fill="#ffffff"/>
        <defs>
            <linearGradient id="paint0_linear_21_12729" x1="-6.82717e-07" y1="6.50001" x2="62" y2="13.5" gradientUnits="userSpaceOnUse">
            <stop stop-color="white"/>
            <stop offset="1" stop-color="white" stop-opacity="0"/>
            </linearGradient>
            <linearGradient id="paint1_linear_21_12729" x1="-6.82717e-07" y1="6.50001" x2="62" y2="13.5" gradientUnits="userSpaceOnUse">
            <stop stop-color="white"/>
            <stop offset="1" stop-color="white" stop-opacity="0"/>
            </linearGradient>
            <linearGradient id="paint2_linear_21_12729" x1="-6.82717e-07" y1="6.50001" x2="62" y2="13.5" gradientUnits="userSpaceOnUse">
            <stop stop-color="white"/>
            <stop offset="1" stop-color="white" stop-opacity="0"/>
            </linearGradient>
            <linearGradient id="paint3_linear_21_12729" x1="-6.82717e-07" y1="6.50001" x2="62" y2="13.5" gradientUnits="userSpaceOnUse">
            <stop stop-color="white"/>
            <stop offset="1" stop-color="white" stop-opacity="0"/>
            </linearGradient>
            <linearGradient id="paint4_linear_21_12729" x1="-6.82717e-07" y1="6.50001" x2="62" y2="13.5" gradientUnits="userSpaceOnUse">
            <stop stop-color="white"/>
            <stop offset="1" stop-color="white" stop-opacity="0"/>
            </linearGradient>
        </defs>
    </g>
<!-- Panel -->

    <g id="Panel1">
    <path d="M20.8629 36.0831C17.4705 36.0831 14.7061 38.4906 14.7061 41.448C14.7061 44.4061 17.4655 46.8145 20.8629 46.8145C24.2604 46.8145 27.0197 44.4078 27.0197 41.448C27.0197 38.4881 24.2587 36.0831 20.8629 36.0831ZM20.8629 36.9716C23.4967 36.9716 25.6837 38.6245 26.0664 40.7766C25.8726 43.0918 23.6132 44.9252 20.8629 44.9252C18.1136 44.9252 15.8467 43.0918 15.6595 40.7766C16.0496 38.6245 18.2292 36.9716 20.8629 36.9716ZM20.8629 45.9268C18.4438 45.9268 16.4007 44.5284 15.7893 42.6342C16.7152 44.2531 18.6418 45.367 20.8629 45.367C23.0841 45.367 25.0107 44.2506 25.9366 42.6342C25.3252 44.5284 23.2821 45.9268 20.8629 45.9268ZM49.5414 36.0831C46.149 36.0831 43.3854 38.4906 43.3854 41.448C43.3854 44.4061 46.144 46.8145 49.5414 46.8145C52.9397 46.8145 55.6982 44.4078 55.6982 41.448C55.6982 38.4881 52.9322 36.0831 49.5414 36.0831ZM49.5414 36.9716C52.1751 36.9716 54.3622 38.6245 54.7448 40.7766C54.551 43.0918 52.2916 44.9252 49.5414 44.9252C46.792 44.9252 44.5251 43.0918 44.3379 40.7766C44.7214 38.6245 46.9076 36.9716 49.5414 36.9716ZM49.5414 45.9268C47.1223 45.9268 45.0792 44.5284 44.4686 42.6342C45.3936 44.2531 47.3211 45.367 49.5414 45.367C51.7625 45.367 53.6875 44.2506 54.6151 42.6342C54.002 44.5284 51.9614 45.9268 49.5414 45.9268ZM69.9883 16.5313C69.9883 16.513 69.9883 16.4947 69.9883 16.4764V16.2942C69.9925 16.1985 69.9675 16.1112 69.9135 16.033C69.3411 13.1405 66.8488 13.3277 66.8213 13.3302C66.759 13.3352 66.7024 13.3551 66.6508 13.3917C66.5992 13.4275 66.5601 13.4733 66.5343 13.5298L65.7815 15.1013C65.3764 14.7735 64.9296 14.5206 64.4397 14.3418C63.9505 14.1637 63.4455 14.0689 62.9248 14.0581H7.65341C7.23248 14.0697 6.82485 14.1504 6.43054 14.3018C6.03706 14.4532 5.68018 14.6662 5.3599 14.9399L4.54548 13.2387C4.51886 13.1821 4.47893 13.1355 4.42735 13.0998C4.37578 13.0632 4.31921 13.0424 4.25599 13.0357C4.22853 13.0357 1.60892 12.8377 1.12726 15.9689C1.03991 16.0596 0.997486 16.1686 0.999982 16.2942L1.88927 41.4638C1.89093 41.5087 1.89925 41.5519 1.91423 41.5935L6.64849 55.3188C6.6826 55.4153 6.7425 55.491 6.82818 55.5468C7.01036 55.9893 7.28073 56.3687 7.6401 56.6856C8.28731 57.2505 9.16329 57.535 10.2531 57.535C10.5176 57.5341 10.7813 57.5183 11.0442 57.4867C11.0891 57.4817 11.1315 57.4693 11.1715 57.4485C11.2114 57.4277 11.2455 57.4002 11.2754 57.3661C11.3046 57.332 11.327 57.2937 11.342 57.2513C11.3561 57.2089 11.3628 57.1648 11.3611 57.1199L11.2014 53.477H25.8293C25.9133 53.477 25.9907 53.4554 26.0622 53.4113C26.1338 53.3681 26.1887 53.3082 26.2261 53.2333L30.0478 45.5966H40.5029C40.5287 45.5991 40.5545 45.5991 40.5803 45.5966L44.4045 53.2383C44.4436 53.3123 44.4985 53.3714 44.57 53.4146C44.6416 53.4587 44.7198 53.4812 44.803 53.482H59.8867L59.7187 57.421C59.7162 57.4659 59.7229 57.5092 59.737 57.5516C59.752 57.5949 59.7736 57.6331 59.8027 57.6672C59.8318 57.7014 59.8668 57.7288 59.9067 57.7504C59.9458 57.7712 59.9882 57.7845 60.0331 57.7895C60.296 57.8186 60.5597 57.8345 60.8243 57.8353C61.914 57.8353 62.7925 57.5508 63.4372 56.9884C63.7409 56.7131 63.9846 56.3928 64.1685 56.0268C64.3515 55.6607 64.4621 55.2739 64.5004 54.8663L69.0608 41.6077C69.0758 41.5652 69.0841 41.522 69.0857 41.4779L69.9609 16.6794C69.9817 16.6319 69.9908 16.5829 69.9883 16.5313ZM7.67005 14.9374H62.9331C63.3881 14.9474 63.8266 15.0372 64.2483 15.2086C64.6693 15.3791 65.0469 15.6187 65.3805 15.9282L64.7508 17.2484H6.47296L5.75921 15.7684C6.01293 15.5147 6.30492 15.3167 6.63518 15.1745C6.96544 15.0322 7.31067 14.9565 7.67005 14.9465V14.9374ZM61.1279 24.8901L60.9956 27.9365H60.2037C60.2095 25.3751 60.0573 22.8237 59.7478 20.2814C59.7412 20.234 59.7204 20.1933 59.6879 20.1583C59.6546 20.1242 59.6147 20.1017 59.5681 20.0926C47.2845 17.9638 38.3617 20.0768 38.2793 20.0926C38.1961 20.1142 38.1421 20.1666 38.1179 20.2498C37.9441 20.9752 37.8251 21.7098 37.7594 22.4535H33.3928C33.2788 21.1083 33.1649 20.2856 33.1649 20.2764C33.1574 20.229 33.1374 20.1883 33.1041 20.1533C33.07 20.1184 33.0301 20.0968 32.9827 20.0876C20.7016 17.9588 11.7762 20.0693 11.6939 20.0876C11.6107 20.1092 11.5566 20.1616 11.5325 20.2448C11.505 20.3455 10.8687 22.7155 10.976 27.9273H10.0933L9.95025 24.5898C9.94775 24.5415 9.93611 24.4958 9.91531 24.4525L6.80738 17.9655H64.4114L61.162 24.7537C61.1421 24.7969 61.1312 24.8427 61.1279 24.8901ZM48.064 22.6565C48.0224 22.5949 47.9691 22.5475 47.9034 22.5126C47.8385 22.4776 47.7686 22.4593 47.6946 22.4585H38.1978C38.2627 21.7996 38.3658 21.1466 38.5056 20.5002C39.6453 20.2498 48.0232 18.5736 59.3194 20.5002C59.6097 22.9693 59.757 25.4474 59.7595 27.934H46.9534V25.8052L48.0939 23.0732C48.1555 22.9293 48.1455 22.7904 48.064 22.6565ZM22.525 23.0749L23.6656 25.8077V27.9389H11.421C11.327 23.4534 11.8012 21.0576 11.9293 20.5019C13.069 20.2515 21.4469 18.5761 32.7456 20.5019C32.7822 20.798 32.8637 21.4885 32.9461 22.4585H22.9385C22.9019 22.4593 22.8661 22.4651 22.8312 22.4743C22.7962 22.4843 22.763 22.4984 22.7314 22.5159C22.6997 22.5333 22.6706 22.5541 22.644 22.5791C22.6174 22.6041 22.5941 22.6315 22.5741 22.6615C22.5542 22.6914 22.5375 22.7238 22.525 22.758C22.5126 22.7912 22.5051 22.827 22.5009 22.8628C22.4968 22.8985 22.4968 22.9343 22.5018 22.9709C22.5059 23.0067 22.5151 23.0416 22.5275 23.0749H22.525ZM3.99644 13.7395L4.85578 15.5405C4.8408 15.6179 4.84579 15.6936 4.86992 15.7676C4.89487 15.8425 4.93564 15.9065 4.99304 15.9598C5.02049 15.9839 5.05127 16.0039 5.08371 16.0213L5.91394 17.7558L9.24315 24.7029L9.38207 27.9365H6.92884C6.86894 27.9381 6.81237 27.9506 6.75747 27.9747C6.7034 27.998 6.65515 28.0313 6.61355 28.0737C6.57196 28.1161 6.54035 28.1652 6.51789 28.2201C6.49542 28.275 6.48378 28.3324 6.48378 28.3915V34.0159C6.48794 34.1157 6.52038 34.2047 6.58277 34.2829C6.64516 34.3611 6.72503 34.4135 6.82152 34.4393C7.80315 34.7172 8.73819 35.1073 9.62581 35.6098L10.0642 45.6739C9.1924 46.0566 8.27982 46.2388 7.32731 46.2205C7.2017 46.2155 7.09189 46.2554 6.99955 46.3411C6.98457 46.3544 6.97126 46.3702 6.96045 46.3869L6.09861 25.3318C6.09612 25.2827 6.0853 25.237 6.06451 25.1929L1.89343 16.3965V16.2651C1.89176 16.1952 1.87346 16.1295 1.83936 16.0688C2.15381 14.0514 3.49231 13.7761 3.9981 13.7461L3.99644 13.7395ZM10.9302 45.1615L10.5409 36.1746C12.4967 37.5747 13.3518 39.3075 13.0831 41.3298C12.8228 43.3039 11.9451 44.4744 10.9327 45.1773L10.9302 45.1615ZM1.95748 18.1909L5.39151 25.4316L6.47296 52.0953L2.77606 41.3656L1.95748 18.1909ZM10.6366 56.8087C9.54595 56.877 8.69826 56.6582 8.12842 56.1549C7.85473 55.9161 7.64759 55.6291 7.50783 55.2939C7.53445 55.2065 7.53445 55.1183 7.50783 55.0302L7.30235 54.4354L7.26409 53.4637H10.5109L10.6366 56.8087ZM30.4929 44.7015L30.8206 44.0459C30.8348 44.021 30.8456 43.9944 30.8531 43.9661L30.8639 43.9253H39.7576L39.7825 43.9894C39.7884 44.0085 39.7958 44.0276 39.805 44.0459L40.1336 44.7015H30.4929ZM31.2881 43.0377C31.4753 42.7232 31.7008 42.4396 31.9636 42.185C32.2273 41.9313 32.5185 41.7167 32.8396 41.5403C33.1607 41.3648 33.4985 41.2333 33.8545 41.1485C34.2106 41.0628 34.5708 41.0254 34.9368 41.0362C36.5057 40.9971 37.7918 41.4729 38.7585 42.4587C38.934 42.6392 39.0954 42.8322 39.2418 43.0377H31.2881ZM40.6169 43.6699C40.4705 43.2881 39.112 40.0404 34.9393 40.1477C31.8854 40.1477 30.5927 42.3106 30.1684 43.2739C30.1576 43.2956 30.1476 43.3172 30.1393 43.3405C30.0728 43.4994 30.0295 43.6175 30.0112 43.6816L25.5539 52.5803H7.74492V47.0948C8.75816 47.0391 9.72231 46.7945 10.6382 46.3594C10.6998 46.3453 10.7555 46.3186 10.8046 46.2795C12.228 45.535 13.6189 44.1283 13.9749 41.4638C14.4008 38.276 12.3486 36.227 10.3695 35.025C10.3246 34.9825 10.273 34.9509 10.2148 34.931C9.31802 34.4077 8.37466 33.9876 7.38471 33.6723V28.8249H24.1356C24.1955 28.8249 24.2537 28.8133 24.3094 28.79C24.366 28.7667 24.4151 28.7342 24.4575 28.691C24.5008 28.6485 24.5332 28.5995 24.5565 28.5437C24.5798 28.488 24.5915 28.4298 24.5915 28.369V25.7161C24.5915 25.6562 24.5798 25.5988 24.5573 25.5431L23.6315 23.3461H47.0241L46.0982 25.5431C46.0758 25.5988 46.0641 25.6562 46.0641 25.7161V28.3807C46.0641 28.4406 46.0758 28.4988 46.099 28.5545C46.1223 28.6103 46.1548 28.6602 46.198 28.7026C46.2405 28.745 46.2896 28.7783 46.3461 28.8016C46.4019 28.8241 46.4601 28.8357 46.52 28.8357H61.0114C61.0397 28.8956 61.0813 28.943 61.1362 28.9788C61.1911 29.0146 61.251 29.0337 61.3168 29.0362C61.3883 29.0404 61.454 29.0246 61.5156 28.988C61.5763 28.9514 61.6221 28.9006 61.652 28.8357H63.2509V33.6723C62.404 33.9427 61.5896 34.2896 60.8085 34.713C60.7378 34.7305 60.6762 34.7637 60.6238 34.8128C58.5441 35.9874 56.2065 38.083 56.6582 41.4638C57.0434 44.3537 58.6464 45.7654 60.1879 46.4526C60.2428 46.4933 60.3035 46.5191 60.3709 46.5299C61.1753 46.8577 62.0114 47.0457 62.879 47.0948V52.5803H45.0767L40.6169 43.6699ZM57.55 41.3456C57.2671 39.2326 58.2113 37.4358 60.3568 36.0058L60.4574 35.94L60.0465 45.4052C58.9184 44.7381 57.8395 43.531 57.55 41.3456ZM62.9655 56.4444C62.3816 56.9493 61.538 57.1681 60.4458 57.0999L60.603 53.4562H63.3391C63.3981 53.4554 63.4539 53.4429 63.5079 53.4196C63.562 53.3972 63.6094 53.3647 63.651 53.3231C63.6918 53.2824 63.7242 53.235 63.7475 53.1809C63.77 53.1268 63.7825 53.0711 63.7841 53.0128V46.6373C63.7841 46.5765 63.7725 46.5175 63.7484 46.4617C63.7242 46.406 63.6901 46.3569 63.646 46.3145C63.6019 46.2729 63.5512 46.2413 63.4938 46.2205C63.4364 46.1989 63.3773 46.1897 63.3166 46.193C62.493 46.2138 61.6944 46.0816 60.9224 45.7946L61.3783 35.3843C62.157 34.9859 62.968 34.6706 63.8116 34.4393C63.9089 34.4127 63.9888 34.3594 64.0503 34.2796C64.1127 34.2006 64.1443 34.1099 64.1468 34.0092V28.3807C64.1468 28.3208 64.1352 28.2642 64.1127 28.2085C64.0903 28.1536 64.0587 28.1053 64.0171 28.0621C63.9755 28.0196 63.9272 27.9864 63.8731 27.9631C63.8182 27.9389 63.7617 27.9265 63.7018 27.9248H61.7094L61.8367 24.9808L67.0809 14.024C67.5601 14.0473 68.7754 14.286 69.1814 16.0122C69.1307 16.0846 69.1032 16.1653 69.0991 16.2534L69.0766 16.909L65.0128 25.484C64.9929 25.5273 64.9812 25.5731 64.9787 25.6205L63.8207 54.0826L63.4971 55.0185C63.4697 55.1025 63.4672 55.1866 63.4888 55.2714C63.5104 55.3571 63.5537 55.4295 63.6178 55.4902C63.4788 55.862 63.2609 56.1798 62.9631 56.4444H62.9655ZM64.6185 51.7442L65.6792 25.7145L69.0009 18.7058L68.2006 41.3573L64.6185 51.7442Z" fill="currentColor"/>
    </g>
    <g id="Panel2">
    <path d="M60.6019 45.8275C60.6019 45.8275 60.618 45.8275 60.6226 45.8275C60.6326 45.8206 60.6418 45.8129 60.651 45.8045C60.6625 45.7961 60.6732 45.7869 60.6832 45.7761C60.6985 45.7623 60.7115 45.747 60.7222 45.7302L60.746 45.698C60.7567 45.6781 60.7659 45.6566 60.7736 45.6352C60.7782 45.626 60.782 45.6152 60.7851 45.6053C60.7942 45.5723 60.7988 45.5394 60.7988 45.5057V17.115C60.7981 17.0399 60.7766 16.9702 60.7345 16.9074C60.6923 16.8445 60.6372 16.7978 60.5675 16.7679L35.2399 5.23421C35.2085 5.17445 35.1648 5.12541 35.1073 5.08864C35.0139 5.02734 34.9127 5.01202 34.8039 5.04267C34.7618 5.03041 34.7189 5.02581 34.6752 5.02888C34.6315 5.03194 34.5894 5.0419 34.5496 5.05952C34.5097 5.07714 34.4737 5.10089 34.4415 5.13077C34.4094 5.16065 34.3841 5.19513 34.3642 5.23421L9.03426 16.7679C8.96454 16.7978 8.90861 16.8445 8.86647 16.9074C8.82434 16.9702 8.80288 17.0399 8.80212 17.115V45.4965C8.80212 45.5302 8.80671 45.5631 8.81667 45.5961C8.81667 45.6076 8.81667 45.6145 8.82817 45.626C8.83966 45.6375 8.84426 45.6673 8.85575 45.6888L8.87873 45.721C8.89099 45.7371 8.90402 45.7531 8.91857 45.7669L8.95075 45.7953C8.95918 45.8029 8.96914 45.8114 8.97833 45.8183H8.99902L9.01817 45.8321L34.5358 58.1733C34.5879 58.1994 34.6438 58.2116 34.702 58.2108C34.7603 58.2108 34.8147 58.1986 34.8668 58.1733L60.5836 45.8321L60.6019 45.8275ZM52.3841 48.9281L44.4812 45.1632L51.3184 41.9024C51.3583 41.8841 51.3866 41.8549 51.4042 41.8143L59.5132 45.5057L52.3841 48.9281ZM43.1772 53.3481L35.2445 49.5671L44.0484 45.3739L51.9513 49.1411L43.1772 53.3481ZM17.6275 49.1549L25.5626 45.3739L34.3665 49.5671L26.3662 53.3779L17.6275 49.1549ZM10.0839 45.508L18.1929 41.8143C18.2097 41.8549 18.2381 41.8848 18.2779 41.9024L25.1151 45.1632L17.1869 48.9419L10.0839 45.508ZM27.5944 37.5354L34.3573 40.7586L25.5534 44.9525L18.5982 41.632L27.5944 37.5354ZM28.0579 37.3293L34.8108 34.257L41.5622 37.3293L34.8085 40.5479L28.0579 37.3293ZM42.0165 37.5354L51.015 41.632L44.0484 44.9525L35.2445 40.7586L42.0165 37.5354ZM26.0046 45.1632L34.8085 40.9693L43.6124 45.1632L34.8085 49.3541L26.0046 45.1632ZM60.0342 26.0277L59.6266 25.8423C59.6036 25.8316 59.5791 25.8262 59.5538 25.8254C59.5286 25.8247 59.504 25.8285 59.4803 25.8369C59.4565 25.8461 59.4359 25.8591 59.4175 25.8768C59.3991 25.8944 59.3845 25.9143 59.3738 25.9373C59.3531 25.9855 59.3516 26.0338 59.37 26.0829C59.3883 26.1319 59.4213 26.1679 59.4688 26.1893L60.0342 26.4468V36.2995L59.6266 36.1141C59.6036 36.1034 59.5791 36.098 59.5538 36.0965C59.5286 36.0957 59.504 36.0996 59.4803 36.1088C59.4565 36.118 59.4359 36.131 59.4175 36.1478C59.3991 36.1655 59.3845 36.1854 59.3738 36.2091C59.3531 36.2566 59.3516 36.3057 59.37 36.3547C59.3883 36.4037 59.4213 36.439 59.4688 36.4612L60.0342 36.7186V44.9035L35.2835 33.6364V25.4508L35.4896 25.5458C35.5379 25.568 35.5869 25.5703 35.6367 25.5519C35.6865 25.5343 35.7225 25.5013 35.7448 25.4531C35.7662 25.4048 35.7678 25.3565 35.7494 25.3067C35.731 25.2569 35.6973 25.2209 35.6498 25.1987L35.2835 25.0317V15.1797L35.4896 15.2747C35.5379 15.2969 35.5869 15.2984 35.6367 15.28C35.6865 15.2609 35.7225 15.2279 35.7448 15.1797C35.7655 15.1314 35.7662 15.0831 35.7478 15.0341C35.7294 14.9851 35.6973 14.9498 35.6498 14.9268L35.2835 14.7537V6.09383L60.0342 17.3609V26.0277ZM34.5189 6.00343V14.5706L33.7543 14.92C33.7145 14.9391 33.6846 14.969 33.6647 15.0088C33.6447 15.0487 33.6394 15.0908 33.6486 15.1345C33.6585 15.1781 33.68 15.2142 33.7145 15.2425C33.7489 15.2709 33.7888 15.2854 33.8332 15.2862C33.8608 15.2854 33.8876 15.2793 33.9121 15.2678L34.5189 14.9897V24.8516L33.7543 25.2033C33.7313 25.214 33.7114 25.2278 33.6938 25.2462C33.6769 25.2646 33.6631 25.286 33.6547 25.3098C33.6455 25.3335 33.6417 25.3581 33.6424 25.3834C33.6432 25.4086 33.6493 25.4324 33.6593 25.4554C33.6938 25.5297 33.752 25.5665 33.8332 25.5672C33.8608 25.5665 33.8876 25.5603 33.9121 25.5481L34.5189 25.2707V33.4556L9.56674 44.9012V36.7186L10.1322 36.4589C10.1804 36.4367 10.2134 36.4007 10.231 36.3509C10.2494 36.3011 10.2471 36.252 10.2249 36.2045C10.2027 36.1563 10.1674 36.1233 10.1176 36.1057C10.0686 36.0873 10.0203 36.0896 9.9728 36.1118L9.56674 36.2965V26.4468L10.1322 26.187C10.1804 26.1648 10.2134 26.1288 10.231 26.079C10.2494 26.0292 10.2471 25.981 10.2249 25.9327C10.2027 25.8852 10.1674 25.8522 10.1176 25.8339C10.0686 25.8162 10.0203 25.8178 9.9728 25.84L9.56674 26.0254V17.3609L34.5189 6.00343ZM34.702 57.4072L26.7976 53.584L34.7993 49.7709L42.7344 53.5519L34.702 57.4072ZM26.3433 18.5393C26.321 18.4918 26.3187 18.4435 26.3371 18.3937C26.3555 18.3447 26.3877 18.3087 26.436 18.2872L28.2663 17.449C28.3131 17.4329 28.359 17.4345 28.4042 17.4544C28.4494 17.4736 28.4824 17.5057 28.5023 17.5502C28.523 17.5954 28.526 17.6406 28.5115 17.6881C28.4969 17.7348 28.4686 17.7708 28.4257 17.7961L26.5953 18.6343C26.5708 18.645 26.544 18.6504 26.5172 18.6504C26.4352 18.6511 26.377 18.6136 26.3433 18.5393ZM30.0017 16.8629C29.9794 16.8147 29.9771 16.7664 29.9955 16.7166C30.0132 16.6668 30.0461 16.6308 30.0944 16.6086L31.9247 15.7696C31.9707 15.7543 32.0167 15.7558 32.0619 15.7758C32.1071 15.7949 32.14 15.8271 32.1607 15.8715C32.1814 15.9167 32.1844 15.9619 32.1699 16.0094C32.1553 16.0562 32.1262 16.0922 32.0841 16.1175L30.2537 16.9556C30.2292 16.9671 30.2024 16.9733 30.1748 16.974C30.0936 16.974 30.0354 16.9365 30.0017 16.8629ZM11.6982 25.2546C11.6882 25.2301 11.6829 25.2048 11.6836 25.178C11.6836 25.152 11.6898 25.1267 11.7005 25.1022C11.7112 25.0784 11.7273 25.0577 11.7465 25.0401C11.7664 25.0225 11.7894 25.0102 11.8146 25.0018L13.6419 24.1613C13.6657 24.1475 13.691 24.1391 13.7178 24.136C13.7454 24.133 13.7714 24.1353 13.7975 24.1429C13.8235 24.1514 13.8465 24.1644 13.8672 24.182C13.8879 24.2004 13.904 24.2219 13.9147 24.2464C13.9262 24.2709 13.9323 24.2969 13.9323 24.3245C13.9331 24.3513 13.9277 24.3774 13.917 24.4027C13.9062 24.428 13.8909 24.4494 13.871 24.4678C13.8511 24.4862 13.8281 24.5 13.8021 24.5084L11.9717 25.3466C11.9472 25.3588 11.9204 25.365 11.8928 25.3657C11.8537 25.3673 11.8169 25.3588 11.7832 25.3381C11.7495 25.3182 11.7242 25.2899 11.7074 25.2546H11.6982ZM15.3658 23.5752C15.3551 23.5522 15.3489 23.5277 15.3482 23.5024C15.3466 23.4772 15.3512 23.4519 15.3596 23.4281C15.3688 23.4044 15.3819 23.3829 15.3995 23.3645C15.4171 23.3454 15.4378 23.3308 15.4608 23.3209L17.2888 22.4804C17.3126 22.4666 17.3379 22.4582 17.3647 22.4551C17.3915 22.4513 17.4183 22.4543 17.4444 22.462C17.4704 22.4704 17.4934 22.4834 17.5141 22.5011C17.534 22.5195 17.5501 22.5409 17.5616 22.5654C17.5731 22.5899 17.5792 22.616 17.5792 22.6436C17.58 22.6704 17.5746 22.6964 17.5639 22.7217C17.5532 22.7462 17.5378 22.7685 17.5171 22.7868C17.4972 22.8052 17.4742 22.819 17.449 22.8275L15.6209 23.6679C15.5949 23.6794 15.568 23.6848 15.5397 23.684C15.4592 23.6848 15.401 23.648 15.3658 23.5752ZM19.0242 21.8966C19.0027 21.8491 19.0012 21.8 19.0203 21.751C19.0387 21.702 19.0717 21.6667 19.1192 21.6445L20.9495 20.804C20.9978 20.7826 21.0461 20.781 21.0951 20.7994C21.1441 20.8178 21.1801 20.8515 21.2024 20.899C21.2123 20.922 21.2184 20.9458 21.2192 20.9711C21.22 20.9963 21.2161 21.0209 21.207 21.0446C21.1985 21.0684 21.1855 21.0898 21.1679 21.1082C21.1503 21.1266 21.1303 21.1411 21.1074 21.1511L19.2793 21.9916C19.231 22.0123 19.182 22.0138 19.133 21.9954C19.0832 21.977 19.0472 21.9441 19.0242 21.8966ZM22.6849 20.2179C22.6626 20.1704 22.6604 20.1222 22.6787 20.0724C22.6971 20.0233 22.7301 19.9873 22.7776 19.9659L24.6079 19.1277C24.6309 19.1154 24.6554 19.1085 24.6815 19.1062C24.7075 19.1047 24.7328 19.1078 24.7573 19.1162C24.7818 19.1246 24.8041 19.1376 24.8232 19.1553C24.8424 19.1729 24.8577 19.1936 24.8684 19.2173C24.8791 19.2411 24.8845 19.2656 24.8853 19.2916C24.886 19.3177 24.8814 19.343 24.8715 19.3667C24.8623 19.3912 24.8477 19.4119 24.8293 19.4303C24.811 19.4487 24.7895 19.4633 24.765 19.4725L22.9354 20.3106C22.9101 20.3214 22.8841 20.3267 22.8565 20.3267C22.8197 20.3275 22.7852 20.3175 22.7546 20.2984C22.7232 20.2785 22.7002 20.2516 22.6849 20.2179ZM48.3067 20.899C48.3289 20.8508 48.3649 20.8178 48.4147 20.7994C48.4645 20.781 48.5128 20.7826 48.5618 20.804L50.4151 21.6445C50.4619 21.6667 50.4948 21.7027 50.5132 21.7518C50.5316 21.8 50.5308 21.8491 50.5101 21.8966C50.494 21.931 50.4703 21.9586 50.4381 21.9786C50.4067 21.9985 50.3715 22.0084 50.3339 22.0077C50.3063 22.0077 50.2803 22.0023 50.255 21.9916L48.4017 21.1511C48.3542 21.1289 48.3212 21.0936 48.3021 21.0446C48.2837 20.9956 48.2852 20.9465 48.3067 20.899ZM55.6855 24.2586C55.6962 24.2356 55.7108 24.215 55.7292 24.1981C55.7476 24.1805 55.7683 24.1675 55.792 24.1583C55.8158 24.1498 55.8403 24.1452 55.8656 24.1468C55.8908 24.1475 55.9154 24.1529 55.9383 24.1636L57.7917 25.0018C57.8323 25.021 57.8622 25.0508 57.8821 25.0907C57.9012 25.1305 57.9066 25.1727 57.8974 25.2163C57.8882 25.26 57.866 25.2952 57.8315 25.3236C57.797 25.3519 57.7572 25.3673 57.7128 25.368C57.6852 25.3673 57.6591 25.3611 57.6339 25.3489L55.7805 24.5107C55.7575 24.5007 55.7376 24.4862 55.72 24.4678C55.7024 24.4494 55.6893 24.428 55.6809 24.4042C55.6717 24.3812 55.6679 24.3567 55.6687 24.3314C55.6694 24.3061 55.6748 24.2816 55.6855 24.2586ZM44.6184 19.2204C44.6406 19.1721 44.6758 19.1392 44.7249 19.1208C44.7739 19.1024 44.823 19.1039 44.8705 19.1254L46.7246 19.9659C46.7721 19.9873 46.805 20.0233 46.8226 20.0724C46.841 20.1222 46.8387 20.1704 46.8173 20.2179C46.8019 20.2524 46.7782 20.2792 46.7468 20.2999C46.7154 20.3198 46.6809 20.3298 46.6433 20.329C46.6165 20.3283 46.5912 20.3221 46.5667 20.3106L44.7134 19.4702C44.6659 19.4479 44.6337 19.4127 44.6153 19.3644C44.5969 19.3162 44.5977 19.2679 44.6184 19.2204ZM51.9972 22.5777C52.0195 22.5302 52.0547 22.4972 52.1045 22.4789C52.1535 22.4605 52.2018 22.4628 52.2501 22.485L54.1034 23.3232C54.144 23.3423 54.1739 23.3714 54.1938 23.412C54.213 23.4519 54.2183 23.494 54.2091 23.5369C54.1999 23.5806 54.1777 23.6166 54.1432 23.6449C54.1088 23.6733 54.0689 23.6878 54.0245 23.6886C53.9969 23.6886 53.9709 23.6825 53.9456 23.6702L52.0922 22.8321C52.044 22.8098 52.0103 22.7746 51.9919 22.7248C51.9735 22.675 51.975 22.626 51.9972 22.5777ZM37.2418 15.8623C37.2518 15.8393 37.2656 15.8187 37.284 15.801C37.3024 15.7842 37.3238 15.7704 37.3476 15.762C37.3713 15.7528 37.3958 15.7489 37.4211 15.7497C37.4472 15.7505 37.4709 15.7566 37.4939 15.7673L39.3472 16.6063C39.3878 16.6247 39.4177 16.6545 39.4376 16.6944C39.4576 16.7342 39.4622 16.7764 39.453 16.82C39.4438 16.8637 39.4216 16.8997 39.3871 16.928C39.3526 16.9564 39.3135 16.971 39.2683 16.9717C39.2407 16.9717 39.2147 16.9648 39.1902 16.9533L37.3361 16.1152C37.3131 16.1044 37.2932 16.0899 37.2755 16.0715C37.2587 16.0531 37.2449 16.0324 37.2365 16.0087C37.2273 15.9849 37.2234 15.9604 37.2242 15.9351C37.225 15.9098 37.2311 15.8853 37.2418 15.8623ZM40.9301 17.5318C40.9401 17.5088 40.9546 17.4889 40.973 17.4713C40.9914 17.4544 41.0129 17.4406 41.0366 17.4322C41.0604 17.423 41.0849 17.4192 41.1102 17.4199C41.1354 17.4207 41.1592 17.4268 41.1822 17.4368L43.0355 18.278C43.0593 18.288 43.0799 18.3018 43.0968 18.3202C43.1144 18.3385 43.1282 18.36 43.1366 18.3837C43.1458 18.4075 43.1497 18.432 43.1489 18.4573C43.1474 18.4826 43.142 18.5071 43.1305 18.5301C43.1091 18.5776 43.0731 18.6105 43.024 18.6289C42.975 18.6481 42.9259 18.6465 42.8784 18.6251L41.0251 17.7846C41.0014 17.7739 40.9814 17.7601 40.9638 17.7409C40.947 17.7226 40.9339 17.7019 40.9248 17.6781C40.9156 17.6544 40.9117 17.6298 40.9125 17.6046C40.9133 17.5793 40.9194 17.5548 40.9301 17.5318ZM26.3341 28.8042C26.3119 28.756 26.3096 28.7069 26.3279 28.6571C26.3456 28.6081 26.3785 28.5713 26.4268 28.5491L28.264 27.7201C28.3108 27.7048 28.356 27.7063 28.4019 27.7255C28.4471 27.7454 28.4801 27.7768 28.5 27.822C28.5207 27.8665 28.5237 27.9124 28.5092 27.9592C28.4946 28.0067 28.4663 28.0427 28.4234 28.068L26.593 28.9061C26.5685 28.9176 26.5425 28.9238 26.5149 28.9245C26.4344 28.923 26.377 28.8862 26.3433 28.8134L26.3341 28.8042ZM22.6849 30.499C22.6626 30.4515 22.6604 30.4024 22.6787 30.3534C22.6971 30.3044 22.7301 30.2684 22.7776 30.2461L24.6079 29.408C24.6554 29.3865 24.7037 29.3842 24.7535 29.4026C24.8025 29.4202 24.8385 29.4532 24.86 29.5007C24.8822 29.5482 24.8845 29.5972 24.8661 29.6462C24.8485 29.6953 24.8155 29.7313 24.768 29.7535L22.9354 30.5848C22.9101 30.5955 22.8841 30.6009 22.8565 30.6009C22.7776 30.6032 22.7201 30.5695 22.6849 30.499ZM19.0242 32.1776C19.0027 32.1294 19.0012 32.0811 19.0203 32.0321C19.0387 31.983 19.0717 31.947 19.1192 31.9256L20.9495 31.0843C20.9978 31.0636 21.0461 31.0621 21.0951 31.0805C21.1441 31.0989 21.1801 31.1318 21.2024 31.1793C21.2123 31.2023 21.2184 31.2268 21.2192 31.2521C21.22 31.2774 21.2161 31.3019 21.207 31.3257C21.1985 31.3494 21.1855 31.3701 21.1679 31.3885C21.1503 31.4069 21.1303 31.4214 21.1074 31.4322L19.2793 32.2726C19.231 32.2933 19.182 32.2941 19.133 32.2765C19.0832 32.2581 19.0472 32.2251 19.0242 32.1776ZM15.3658 33.8563C15.3558 33.8333 15.3497 33.8095 15.3489 33.7835C15.3482 33.7582 15.352 33.7337 15.3612 33.7107C15.3696 33.687 15.3826 33.6655 15.4003 33.6471C15.4179 33.6287 15.4378 33.6142 15.4608 33.6042L17.2888 32.7637C17.3126 32.7492 17.3379 32.7407 17.3647 32.7377C17.3915 32.7346 17.4183 32.7369 17.4444 32.7453C17.4704 32.7538 17.4934 32.7668 17.5141 32.7844C17.534 32.802 17.5501 32.8235 17.5616 32.8488C17.5731 32.8733 17.5792 32.8993 17.5792 32.9262C17.58 32.9537 17.5746 32.9798 17.5639 33.0043C17.5532 33.0296 17.5378 33.051 17.5171 33.0702C17.4972 33.0886 17.4742 33.1016 17.449 33.1108L15.6209 33.9513C15.5949 33.962 15.568 33.9674 15.5397 33.9674C15.5014 33.9666 15.4661 33.9551 15.4347 33.9337C15.4033 33.9114 15.3803 33.8823 15.3658 33.8471V33.8563ZM11.7074 35.5349C11.6967 35.5119 11.6905 35.4882 11.6898 35.4621C11.689 35.4369 11.6928 35.4123 11.702 35.3886C11.7104 35.3648 11.7242 35.3441 11.7411 35.3258C11.7587 35.3074 11.7794 35.2928 11.8024 35.2829L13.6304 34.4355C13.6542 34.4217 13.6795 34.4125 13.7063 34.4094C13.7331 34.4064 13.7599 34.4087 13.786 34.4171C13.812 34.4255 13.835 34.4386 13.8557 34.4562C13.8764 34.4738 13.8917 34.4952 13.9032 34.5205C13.9147 34.545 13.9208 34.5711 13.9208 34.5979C13.9216 34.6255 13.9162 34.6515 13.9055 34.6768C13.8948 34.7013 13.8794 34.7236 13.8595 34.7419C13.8396 34.7603 13.8166 34.7741 13.7906 34.7826L11.9602 35.6207C11.9357 35.633 11.9089 35.6391 11.8813 35.6391C11.7993 35.6384 11.7411 35.6008 11.7074 35.5257V35.5349ZM30.0109 27.144C29.9886 27.0957 29.9863 27.0467 30.0047 26.9969C30.0223 26.9478 30.0553 26.9118 30.1036 26.8888L31.9339 26.0507C31.9799 26.0346 32.0258 26.0369 32.071 26.056C32.117 26.076 32.15 26.1074 32.1699 26.1526C32.1906 26.197 32.1936 26.243 32.1791 26.2897C32.1645 26.3372 32.1362 26.3732 32.0933 26.3977L30.2629 27.2367C30.2384 27.2482 30.2124 27.2543 30.1848 27.2551C30.1442 27.2558 30.1074 27.2451 30.0737 27.2229C30.0407 27.2014 30.0162 27.1716 30.0017 27.1348L30.0109 27.144ZM52.0064 32.858C52.0287 32.8105 52.0647 32.7775 52.1137 32.7599C52.1627 32.7415 52.2118 32.7438 52.2593 32.766L54.1126 33.6042C54.1532 33.6234 54.1831 33.6525 54.203 33.6923C54.2222 33.7329 54.2275 33.7743 54.2183 33.818C54.2091 33.8616 54.1869 33.8976 54.1524 33.926C54.118 33.9543 54.0781 33.9689 54.0337 33.9697C54.0061 33.9697 53.9801 33.9635 53.9548 33.9513L52.1014 33.1131C52.0762 33.1031 52.0539 33.0893 52.0348 33.0702C52.0156 33.051 52.0011 33.0288 51.9911 33.0043C51.9812 32.979 51.9766 32.953 51.9781 32.9262C51.9789 32.8986 51.9857 32.8733 51.9972 32.8488L52.0064 32.858ZM40.9301 27.8128C40.9401 27.7898 40.9546 27.7699 40.973 27.7523C40.9914 27.7347 41.0129 27.7217 41.0366 27.7125C41.0604 27.704 41.0849 27.7002 41.1102 27.701C41.1354 27.7017 41.1592 27.7071 41.1822 27.7178L43.0355 28.5583C43.0593 28.569 43.0792 28.5836 43.0968 28.602C43.1137 28.6204 43.1267 28.641 43.1359 28.6648C43.1451 28.6885 43.1489 28.7131 43.1481 28.7383C43.1474 28.7636 43.1412 28.7881 43.1305 28.8111C43.1091 28.8586 43.0731 28.8916 43.024 28.91C42.975 28.9284 42.9259 28.9268 42.8784 28.9061L41.0251 28.0649C41.0014 28.0549 40.9814 28.0404 40.9638 28.022C40.947 28.0036 40.9339 27.9829 40.9248 27.9592C40.9156 27.9354 40.9117 27.9109 40.9125 27.8856C40.9133 27.8603 40.9194 27.8358 40.9301 27.8128ZM44.6184 29.4915C44.6406 29.444 44.6758 29.411 44.7249 29.3926C44.7739 29.3743 44.823 29.375 44.8705 29.3965L46.7246 30.2369C46.7721 30.2592 46.805 30.2952 46.8226 30.3442C46.841 30.3932 46.8387 30.4423 46.8173 30.4898C46.8019 30.5235 46.7782 30.5511 46.7468 30.571C46.7154 30.5917 46.6809 30.6009 46.6433 30.6009C46.6158 30.6009 46.5897 30.5955 46.5644 30.5848L44.7111 29.7443C44.6636 29.7213 44.6314 29.6861 44.613 29.6371C44.5954 29.588 44.5969 29.539 44.6184 29.4915ZM37.2418 26.1342C37.2518 26.1112 37.2656 26.0905 37.284 26.0729C37.3024 26.0553 37.3238 26.0422 37.3476 26.0331C37.3713 26.0239 37.3958 26.02 37.4211 26.0216C37.4472 26.0223 37.4709 26.0285 37.4939 26.0392L39.3472 26.8797C39.3702 26.8904 39.3909 26.9042 39.4085 26.9226C39.4254 26.9417 39.4384 26.9624 39.4476 26.9861C39.4568 27.0099 39.4606 27.0344 39.4599 27.0597C39.4591 27.085 39.453 27.1087 39.4422 27.1325C39.4078 27.206 39.3503 27.2428 39.2683 27.2436C39.2415 27.2436 39.2147 27.2382 39.1902 27.2267L37.3361 26.3862C37.3131 26.3763 37.2932 26.3617 37.2755 26.3433C37.2587 26.325 37.2449 26.3035 37.2365 26.2798C37.2273 26.2568 37.2234 26.2323 37.2242 26.207C37.225 26.1817 37.2311 26.1572 37.2418 26.1342ZM48.3067 31.1701C48.3289 31.1226 48.3649 31.0897 48.4147 31.0713C48.4645 31.0529 48.5128 31.0537 48.5618 31.0751L50.4151 31.9156C50.4619 31.9386 50.4948 31.9738 50.5132 32.0229C50.5316 32.0719 50.5308 32.1202 50.5101 32.1684C50.494 32.2029 50.4703 32.2297 50.4381 32.2504C50.4067 32.2703 50.3715 32.2803 50.3339 32.2795C50.3063 32.2795 50.2803 32.2742 50.255 32.2634L48.4017 31.423C48.3542 31.4007 48.3212 31.3647 48.3021 31.3157C48.2837 31.2667 48.2852 31.2184 48.3067 31.1701ZM57.8775 35.528C57.843 35.6016 57.7848 35.6391 57.7036 35.6391C57.676 35.6399 57.6499 35.6338 57.6247 35.6207L55.7713 34.7826C55.7238 34.7611 55.6901 34.7251 55.6717 34.6761C55.6533 34.627 55.6549 34.578 55.6763 34.5305C55.6985 34.4822 55.7338 34.4493 55.7828 34.4301C55.8326 34.4117 55.8809 34.4133 55.9292 34.4355L57.7825 35.2737C57.8308 35.2951 57.8645 35.3311 57.8829 35.3809C57.9012 35.4307 57.8997 35.4798 57.8775 35.528ZM66.5374 49.6153C66.5374 53.0561 63.5677 56.3169 58.1786 58.7939C52.9772 61.1835 45.8994 62.6936 38.2332 63.0407H38.2072C38.1313 63.0422 38.0586 63.0292 37.9881 63.0024C37.9168 62.9748 37.854 62.935 37.7996 62.8821C37.7444 62.83 37.7015 62.7687 37.6716 62.6998C37.641 62.63 37.6249 62.5573 37.6226 62.4814C37.6211 62.4056 37.6341 62.3328 37.6617 62.2615C37.6893 62.191 37.7291 62.1282 37.7812 62.0738C37.8341 62.0186 37.8946 61.9757 37.9643 61.9451C38.0333 61.9152 38.1061 61.8984 38.1819 61.8968C53.4384 61.2027 65.3912 55.8097 65.3912 49.6245C65.3912 47.6892 64.2044 45.7417 61.9596 43.9979C61.8937 43.9542 61.8393 43.8991 61.7956 43.8324C61.7527 43.7665 61.7244 43.6937 61.7113 43.6156C61.6983 43.5374 61.7014 43.46 61.7205 43.3834C61.7397 43.306 61.7734 43.2363 61.8217 43.1735C61.8699 43.1107 61.9289 43.0601 61.9986 43.021C62.0676 42.9827 62.1419 42.9597 62.2208 42.9521C62.2997 42.9444 62.3771 42.9528 62.4522 42.9774C62.5281 43.0019 62.5955 43.0402 62.6545 43.0931C65.1966 45.0544 66.5374 47.3115 66.5374 49.6153ZM33.2448 62.5174C33.2394 62.6178 33.2096 62.7105 33.1544 62.7955C33.1 62.8798 33.028 62.9457 32.9391 62.9924L29.2577 64.9162C29.1911 64.9523 29.1198 64.9745 29.0447 64.9821C28.9689 64.9898 28.8953 64.9829 28.8225 64.9615C28.7498 64.9392 28.6846 64.9048 28.6256 64.8565C28.5667 64.809 28.5199 64.7515 28.4839 64.6849C28.4487 64.6182 28.4272 64.547 28.4195 64.4719C28.4119 64.3968 28.4188 64.3232 28.441 64.2505C28.4625 64.1784 28.4969 64.1126 28.5444 64.0536C28.5919 63.9953 28.6494 63.9478 28.7153 63.9118L30.4483 63.0062C14.7245 62.1029 3.01074 56.4326 3.01074 49.6153C3.01074 47.1613 4.52084 44.7763 7.38013 42.7153C7.44142 42.6671 7.50961 42.6318 7.58469 42.6119C7.66054 42.5912 7.73639 42.5859 7.81378 42.5966C7.89116 42.6073 7.96394 42.6326 8.0306 42.6732C8.09802 42.713 8.15395 42.7651 8.19992 42.828C8.24589 42.8916 8.2773 42.9613 8.29416 43.0371C8.31178 43.1137 8.31254 43.1904 8.29875 43.267C8.2842 43.3436 8.25585 43.4148 8.21218 43.48C8.16927 43.5451 8.11487 43.5987 8.04975 43.6416C5.50305 45.4804 4.16917 47.5452 4.16917 49.6153C4.16917 55.7515 15.7527 61.0632 30.7402 61.8647L28.9773 60.6648C28.9145 60.6227 28.8624 60.5691 28.8202 60.5063C28.7789 60.4427 28.7505 60.3737 28.7367 60.2986C28.7222 60.2243 28.7229 60.15 28.7383 60.0757C28.7536 60.0014 28.7827 59.9324 28.8256 59.8696C28.8685 59.8068 28.9214 59.7547 28.985 59.7133C29.0486 59.6711 29.1175 59.6436 29.1918 59.629C29.2669 59.6152 29.3412 59.6152 29.4156 59.6313C29.4899 59.6466 29.5588 59.6757 29.6216 59.7179L32.995 62.0102C33.0778 62.0669 33.1421 62.1405 33.1866 62.2309C33.231 62.3213 33.2509 62.417 33.2448 62.5174Z" fill="currentColor"/>
    </g>
    <g id="Panel3">
    <path opacity="0.86" d="M40.5696 47.3466C40.5921 47.3831 40.6053 47.4226 40.6115 47.4653C40.6178 47.5072 40.6146 47.5491 40.6038 47.5902C40.5921 47.6313 40.5735 47.6693 40.5471 47.7027C40.5207 47.7361 40.4888 47.7632 40.4516 47.7842C37.4375 49.495 34.2891 50.9078 31.0071 52.0227C32.5401 53.7397 31.9639 61.9592 31.4754 66.7183C31.4715 66.7571 31.4614 66.7936 31.4435 66.8285C31.4257 66.8634 31.4024 66.8936 31.3736 66.92C31.3449 66.9456 31.3123 66.9658 31.2758 66.9798C31.2393 66.9937 31.2012 67.0007 31.1624 66.9999H31.1321C31.0886 66.9968 31.0482 66.9852 31.0102 66.965C30.9721 66.9449 30.9387 66.9177 30.9115 66.8843C30.8844 66.851 30.8649 66.8137 30.8533 66.7726C30.8409 66.7307 30.8378 66.6888 30.8424 66.6461C32.1805 53.5868 30.5582 52.4293 30.444 52.3571C30.371 52.3478 30.3089 52.316 30.2584 52.2632C28.4543 52.8676 26.616 53.3386 24.7444 53.6761C24.2815 53.7769 23.814 53.8281 23.3403 53.8297C21.7901 53.8297 20.3976 53.2587 19.5962 52.233C18.8428 51.2701 18.2534 49.5097 19.6334 46.5459C19.0882 46.1091 17.8488 44.8165 18.8211 42.7977C18.8475 42.7434 18.8863 42.7 18.9376 42.6681C18.9888 42.6356 19.0448 42.62 19.1053 42.62H24.3172C24.3568 42.6239 24.3941 42.634 24.4298 42.6511C24.4648 42.6689 24.4966 42.6922 24.523 42.7209C24.5494 42.7496 24.5704 42.783 24.5844 42.8194C24.5992 42.8567 24.6061 42.8947 24.6061 42.9343C24.6061 42.9738 24.5992 43.0119 24.5844 43.0483C24.5704 43.0856 24.5494 43.1181 24.523 43.1476C24.4966 43.1763 24.4648 43.1996 24.4298 43.2167C24.3941 43.2345 24.3568 43.2446 24.3172 43.2477H19.3158C19.2568 43.3742 19.2094 43.5053 19.1745 43.6403C19.1395 43.7761 19.1162 43.9126 19.1061 44.0523C19.096 44.1919 19.0983 44.3308 19.1139 44.4697C19.1286 44.6086 19.1566 44.7444 19.1962 44.8786C19.2366 45.012 19.2886 45.1416 19.3515 45.2657C19.4152 45.3899 19.4898 45.5078 19.5744 45.6187C19.6598 45.7297 19.7538 45.8321 19.8579 45.926C19.9612 46.0191 20.073 46.1029 20.1918 46.1766C20.2252 46.1968 20.2547 46.2224 20.2788 46.2542C20.3029 46.2852 20.3207 46.3194 20.3316 46.3574C20.3425 46.3954 20.3464 46.4342 20.3433 46.4737C20.3402 46.5125 20.3293 46.5498 20.3122 46.5855C19.2172 48.8099 19.1426 50.6277 20.0932 51.8349C20.9848 52.9739 22.7671 53.4511 24.6325 53.0484C24.7226 53.0329 31.8963 51.9087 40.1362 47.2201C40.1735 47.1992 40.2131 47.186 40.2551 47.1813C40.2978 47.1767 40.3389 47.1798 40.3801 47.1922C40.4205 47.2038 40.4578 47.2232 40.4904 47.2504C40.5238 47.2768 40.5502 47.3093 40.5696 47.3466ZM55.6027 46.061C55.0466 49.7611 57.5233 56.3512 61.491 61.7311C61.5159 61.7644 61.533 61.8017 61.543 61.842C61.5531 61.8824 61.5547 61.9227 61.5493 61.9638C61.543 62.0049 61.5291 62.043 61.5073 62.0786C61.4864 62.1143 61.4584 62.1438 61.425 62.1686C61.3916 62.1935 61.3551 62.2105 61.3147 62.2199C61.2743 62.2299 61.234 62.2323 61.1928 62.2261C61.1516 62.2199 61.1136 62.2059 61.0779 62.1849C61.0421 62.1632 61.0126 62.1361 60.987 62.1035C56.8639 56.5149 54.3942 49.879 54.9829 45.9663C55.1732 44.6978 56.2201 42.3516 57.232 40.083C57.9325 38.515 58.6556 36.8942 59.0431 35.7397C59.0416 35.7312 59.0416 35.7219 59.0431 35.7133C59.1021 35.5799 59.1588 35.4441 59.2155 35.3083H54.4509C54.4595 35.3805 54.4447 35.4464 54.4075 35.5077C54.0184 36.1563 53.5765 36.7654 53.0802 37.3364C52.9684 37.7732 52.3378 40.0108 50.9468 40.7153C50.668 40.8604 50.3706 40.9333 50.056 40.9341C49.74 40.9294 49.4378 40.8635 49.1497 40.7347C47.9141 40.2056 48.0392 38.9347 48.2737 38.3288C48.2908 38.2931 48.3141 38.262 48.3436 38.2349C48.3723 38.2077 48.4057 38.1868 48.443 38.172C48.4803 38.1581 48.5183 38.1511 48.5587 38.1511C48.5983 38.1511 48.6371 38.1581 48.6737 38.1728C48.7109 38.1875 48.7443 38.2085 48.7731 38.2356C48.8026 38.2636 48.8251 38.2946 48.8422 38.3311C48.8593 38.3668 48.8694 38.4048 48.8725 38.4444C48.8748 38.4839 48.8701 38.5227 48.8585 38.5607C48.8119 38.6787 48.4313 39.7354 49.3928 40.1489C49.5916 40.2482 49.8029 40.2979 50.025 40.2979C50.2479 40.2979 50.4591 40.2482 50.6579 40.1489C51.9153 39.5127 52.476 37.1394 52.4822 37.1153C52.4931 37.0672 52.514 37.0245 52.5459 36.9865C53.0056 36.4589 53.4196 35.8972 53.7877 35.3021H48.8119C48.7847 35.3029 48.7575 35.299 48.7311 35.2913C48.2442 35.1469 47.786 34.939 47.3557 34.669C46.9263 34.3982 46.5403 34.0755 46.2001 33.6992C46.1403 33.762 46.0673 33.7946 45.9811 33.7977H44.6228C43.6862 35.3634 42.5671 36.4217 41.2662 36.4217H41.1831C40.7451 36.6824 38.7741 37.8128 36.8977 37.8128C36.7642 37.8128 36.6282 37.8128 36.4947 37.7934C36.1599 37.9478 35.8081 38.0277 35.4392 38.0339C35.3655 38.0339 35.2925 38.0293 35.2202 38.0184L15.1088 36.9384C15.1314 36.9532 15.1508 36.971 15.1686 36.9904C15.915 37.9726 18.0981 38.0386 18.8778 37.9788C18.9252 37.975 18.9718 37.9819 19.016 37.999C19.0611 38.0161 19.0999 38.0425 19.1325 38.0774C19.1651 38.1123 19.1884 38.1526 19.2024 38.1984C19.2164 38.2442 19.2203 38.2907 19.2125 38.3381C19.1232 38.9502 18.9935 40.7153 19.4059 41.509C19.4245 41.5462 19.4362 41.585 19.4401 41.6269C19.4439 41.6681 19.4401 41.7084 19.4276 41.7488C19.4152 41.7883 19.3958 41.824 19.3694 41.8558C19.343 41.8884 19.3111 41.914 19.2739 41.9334C19.2288 41.959 19.1799 41.9714 19.1271 41.9706C19.0696 41.9706 19.0152 41.9551 18.9655 41.9256C18.9158 41.8962 18.877 41.8558 18.849 41.8046C18.3831 40.9294 18.4724 39.342 18.5446 38.6197C17.6694 38.6352 15.5515 38.5367 14.6669 37.369C14.6421 37.3357 14.6242 37.2992 14.6141 37.2588C14.6033 37.2193 14.6009 37.1789 14.6071 37.1378C14.6126 37.0967 14.6258 37.0579 14.6467 37.0222C14.6677 36.9865 14.6949 36.9563 14.7283 36.9314C14.7283 36.9314 14.7438 36.9314 14.75 36.9206L10.9073 36.7126C10.8017 36.7126 8.23729 36.6405 7.98566 35.0329C5.66046 34.4797 5.47174 31.9007 5.46086 31.6711C4.95994 26.8514 4.86753 22.024 5.18283 17.1881C5.24885 15.4734 6.76637 14.9156 7.31155 14.8504L7.63075 14.793C7.89169 14.4283 8.7716 13.4616 10.9687 13.1396C11.0409 13.1396 15.4878 12.536 22.211 12.2171C26.2922 6.108 35.0408 2.74232 41.1482 3.01542C49.3509 3.38551 56.356 7.38973 59.9339 13.7324L60.8425 13.6517C60.8045 13.4104 60.8115 13.1707 60.8627 12.9325C60.9148 12.6935 61.008 12.4732 61.1431 12.2691C61.4273 11.8952 61.8723 11.6989 62.4564 11.6833H62.52C64.5874 11.6833 64.7474 14.3624 64.8654 16.3245C65.1109 20.3924 65.0208 23.6231 64.5936 26.1989C63.9871 29.8781 62.9953 32.651 60.0372 34.9475C59.9036 35.2866 59.7654 35.6233 59.6209 35.9515C59.2248 37.1347 58.5259 38.6919 57.7943 40.339C56.8095 42.5696 55.7797 44.8755 55.6027 46.061ZM61.6091 20.425L53.7652 21.252C53.5105 21.4103 53.234 21.4732 52.9358 21.4398L51.4027 21.4972C51.1759 23.1397 50.7954 24.7465 50.2611 26.3169C49.7267 27.8872 49.048 29.3932 48.2255 30.8339C48.4259 31.0931 48.6667 31.3072 48.9486 31.4756C49.2297 31.6432 49.5326 31.7541 49.8564 31.8069C50.7325 31.9931 53.5159 32.0257 55.5367 32.0257C55.525 31.9651 55.5312 31.9062 55.5545 31.8488C56.1875 30.2978 56.297 28.9331 55.8566 28.1045C55.7409 27.8849 55.5825 27.7026 55.3806 27.5567C55.1794 27.4116 54.9565 27.3185 54.7111 27.2774C51.8493 26.6652 51.1223 29.283 51.0936 29.3947C51.0851 29.4366 51.068 29.4754 51.0431 29.5103C51.0175 29.5452 50.9872 29.5739 50.9499 29.5964C50.9134 29.6189 50.8738 29.6337 50.8311 29.6399C50.7884 29.6461 50.7465 29.6438 50.7045 29.6321C50.6626 29.6213 50.6253 29.6026 50.5911 29.5763C50.557 29.5491 50.5298 29.5173 50.5096 29.4793C50.4886 29.442 50.4762 29.4017 50.4715 29.3582C50.4676 29.3156 50.4723 29.2737 50.4855 29.2326C50.4855 29.2 51.398 25.9282 54.8431 26.6629C55.0078 26.6939 55.167 26.7436 55.3208 26.8111C55.4745 26.8778 55.619 26.9616 55.7541 27.0617C55.8892 27.161 56.0112 27.2751 56.1207 27.4023C56.2302 27.5295 56.3234 27.6669 56.4018 27.8158C56.9322 28.8128 56.8398 30.3087 56.1502 32.0303C56.9276 32.0303 57.5124 32.0303 57.698 32.0303C57.9916 31.8945 59.6691 31.0108 61.0988 28.0626C61.1804 27.5815 61.7885 23.4547 61.6091 20.425ZM52.9264 20.8121H52.9598C53.3101 20.83 53.4149 20.7493 53.4258 20.7268V16.9235C47.9669 13.8984 41.6491 13.0613 38.7259 12.8425C39.0366 13.1016 39.289 13.4073 39.4847 13.7611C39.6796 14.1149 39.8039 14.492 39.8582 14.8915C40.544 20.013 40.5968 25.1414 40.0182 30.2761C39.6283 33.6464 38.7655 35.9624 37.4538 37.1696C39.1771 36.9508 40.916 35.8732 40.9354 35.8576H40.9595C43.1231 34.7288 43.3685 31.2188 43.3685 31.1838L43.8066 23.8287C43.857 21.1799 46.3484 21.0682 46.3725 21.0682L52.9264 20.8121ZM62.9169 19.0362L62.5946 14.1545L50.9429 15.0296C51.9588 15.4502 52.9451 15.9296 53.9034 16.4689C53.9531 16.4968 53.992 16.5348 54.0207 16.5837C54.0494 16.6326 54.0634 16.6853 54.0634 16.742V20.5918L61.8786 19.767C62.9169 19.6072 62.9169 19.0432 62.9169 19.0362ZM41.1195 3.64309C40.7451 3.62835 40.3599 3.6237 39.9677 3.64309C37.8017 4.06982 32.9711 5.70999 28.4124 12.0418C30.7663 12.0139 33.2709 12.0418 35.8571 12.1209C35.9122 12.1209 35.9689 12.1209 36.0302 12.1357C36.33 12.1101 36.629 12.1147 36.928 12.1489C36.9661 12.1341 37.0057 12.1264 37.0461 12.1271C41.3423 12.28 45.5159 13.0729 49.5675 14.5067L59.2272 13.7805C55.723 7.77455 48.9921 3.99766 41.1195 3.64309ZM23.0009 12.1861C24.5689 12.1186 26.2534 12.0682 28.0248 12.0418C31.2346 7.50766 34.5764 5.34068 36.8364 4.31266C37.3334 4.09387 37.7978 3.90766 38.2265 3.7618C32.8135 4.42671 26.4258 7.39205 23.0009 12.1861ZM8.72578 14.6114C10.6114 14.312 14.1458 13.8092 17.9233 13.5904C22.8347 13.3041 30.0541 13.1528 30.4883 13.1528C30.736 13.1334 30.983 13.1381 31.2299 13.1691C31.4769 13.1994 31.7177 13.2545 31.953 13.3336C32.1883 13.4135 32.4135 13.5159 32.6286 13.6408C32.843 13.7665 33.0426 13.9124 33.2274 14.0784C35.0144 15.5852 35.9207 18.625 35.9207 23.1133C35.9207 28.0346 35.3802 31.6734 34.3178 33.9351C33.865 34.8971 33.4029 35.4092 33.0612 35.6846L35.4959 35.8033C36.5141 34.8607 37.1626 32.0714 37.3288 31.0504C38.6669 22.8045 37.5765 14.5633 37.5656 14.4827C37.401 13.1288 36.4178 12.8293 36.0194 12.7633C35.9976 12.7657 35.9759 12.7657 35.9534 12.7633H35.8555C27.5643 12.4724 19.2987 12.8045 11.058 13.7611C10.2122 13.8581 9.43484 14.142 8.72578 14.6114ZM8.72578 34.5146L11.1038 32.3717C11.1659 32.3151 11.2389 32.2879 11.3228 32.2902L23.5507 32.5657C23.5934 32.568 23.6346 32.5773 23.6734 32.5944C25.4402 33.4106 27.1472 34.3362 28.7952 35.3696H32.3995C32.6776 35.2432 35.2839 33.7775 35.2839 23.1219C35.2839 17.7746 33.9411 15.5177 32.8158 14.568C31.6905 13.6191 30.5714 13.7852 30.5605 13.7875H30.5147C30.4401 13.7875 22.9815 13.9295 17.9536 14.2251C14.4169 14.4415 10.9027 14.8558 7.41174 15.4672H7.38999C7.37679 15.4672 5.86859 15.686 5.81112 17.2168C5.50047 22.0248 5.596 26.8251 6.09847 31.6168C6.1008 31.6284 6.1008 31.6401 6.09847 31.6517C6.09847 31.7549 6.19011 34.3788 8.72578 34.5216V34.5146ZM23.4699 33.2026L11.4261 32.9288L9.60181 34.5627L27.7095 35.427C25.8697 34.3176 23.8357 33.3687 23.4614 33.2003L23.4699 33.2026ZM36.2974 37.2092C36.452 37.1324 36.598 37.0424 36.7354 36.9384C37.6643 36.2425 38.875 34.5107 39.3744 30.2016C39.946 25.1259 39.8939 20.0572 39.2191 14.9947C39 13.7083 38.2359 13.1443 37.5237 12.9061C37.7101 13.1148 37.8592 13.3468 37.9718 13.6028C38.0836 13.8589 38.1535 14.1258 38.1807 14.4043C38.1807 14.4827 39.2928 22.8139 37.9423 31.1528C37.9136 31.3173 37.2674 35.1842 35.7942 36.3697C35.7359 36.4155 35.6707 36.4388 35.5969 36.4395H35.5814L8.8182 35.1508H8.66055C9.05429 36.026 10.8941 36.0958 10.9159 36.0958L35.2575 37.4086H35.2987C35.6489 37.4396 35.979 37.3729 36.2889 37.2069L36.2974 37.2092ZM47.7697 21.6307L46.3904 21.6788C46.3112 21.6788 44.4698 21.7789 44.4302 23.8349L43.9813 31.2141C43.9813 31.3413 43.8066 33.7993 42.449 35.4247C45.2495 33.5153 47.1655 25.309 47.7611 21.6283L47.7697 21.6307ZM45.8273 33.1825C49.6157 28.6251 50.5725 22.9752 50.7635 21.5251L48.4026 21.6105C48.2644 22.4678 47.1476 29.0797 44.9715 33.1825H45.8273ZM48.8585 34.6876H59.3584C62.3935 32.4694 63.3805 29.7555 63.9855 26.1027C64.4033 23.5726 64.4888 20.3877 64.248 16.368C64.1144 14.1521 63.8908 12.3172 62.5247 12.3172H62.4851C62.3267 12.3056 62.1737 12.3289 62.0269 12.3886C61.8793 12.4476 61.7527 12.536 61.6463 12.6539C61.5594 12.7975 61.5003 12.9511 61.4708 13.1164C61.4405 13.2808 61.4421 13.4453 61.4732 13.6098L62.8532 13.5051C62.9402 13.4989 63.0171 13.5237 63.0831 13.5819C63.1491 13.6401 63.1848 13.713 63.1903 13.8007L63.5452 19.0059C63.5452 19.054 63.5801 20.0184 62.2311 20.3396C62.4369 23.6207 61.752 28.0145 61.7209 28.2138C61.7162 28.2433 61.7077 28.272 61.6945 28.2992C60.017 31.7983 57.9721 32.6122 57.8821 32.6448C57.8479 32.6564 57.8129 32.6634 57.7772 32.6642C57.6832 32.6642 56.8398 32.6751 55.723 32.6751C53.6666 32.6751 50.6867 32.6378 49.7205 32.4345C49.3664 32.3694 49.0309 32.2499 48.7148 32.0761C48.3995 31.9023 48.1191 31.6827 47.8753 31.4174C47.4839 32.0427 47.0606 32.6448 46.6047 33.2244C46.9053 33.5673 47.247 33.8621 47.6299 34.1096C48.0127 34.3571 48.422 34.5472 48.8585 34.6807V34.6876Z" fill="currentColor"/>
    </g>
</svg>