<svg width="38.000000" height="30.000000" viewBox="0 0 38 30" fill="none" xmlns="http://www.w3.org/2000/svg" >
	<g id="Logo">
        <defs>
		    <clipPath >
			    <rect  width="38.000000" height="30.000000" fill="white" fill-opacity="0"/>
		    </clipPath>
	    </defs>
	    <rect id="Logo" width="38.000000" height="30.000000" fill="#FFFFFF" fill-opacity="0"/>
	    <g clip-path="url(#clip7_1903)">
		    <path id="Vector" d="M12.5394 1.53809L28.5614 1.53809L16.782 19.21L0.76001 19.21L12.5394 1.53809Z" fill="#19B5F1" fill-opacity="1.000000" fill-rule="nonzero"/>
		    <path id="Vector" d="M13.241 20.8477L8.67859 27.6924L25.4606 27.6924L37.24 10.0205L24.8538 10.0205L17.6368 20.8477L13.241 20.8477Z" fill="#CA6AEB" fill-opacity="1.000000" fill-rule="nonzero"/>
	    </g>
    </g>

    <g id="Logo1">
        <path d="M0 0H2.62375L6.66869 12.8457H6.71242L10.7574 0H13.3811L7.9587 16H5.42241L0 0Z" fill="#ffffff"/>
        <path d="M25.0044 10.8343V16H22.4681V11.4743L20.8938 9.66857H15.9087V16H13.3724V0H22.6867L24.9169 2.35429V7.26857L23.3208 8.93714L25.0044 10.8343ZM15.9087 7.47429H21.5498L22.4243 6.56V3.15429L21.5498 2.24H15.9087V7.47429Z" fill="#ffffff"/>
        <path d="M26.0974 0H28.4151L35.6304 11.6343H35.6741V0H38.1011V16H35.7834L28.5681 4.38857H28.5244V16H26.0974V0Z" fill="#ffffff"/>
        <path d="M38.8762 13.9657V11.2686L40.8222 9.25714H46.4414V7.56571L45.6324 6.72H42.1996L41.3906 7.56571V8.29714H38.9637V6.97143L41.1939 4.61714H46.6381L48.8683 6.97143V16H46.6163V14.24L44.8671 16H40.8222L38.8762 13.9657ZM44.6266 13.9657L46.4414 12.1371V11.1771H42.0029L41.3032 11.8857V13.28L41.9591 13.9657H44.6266Z" fill="#ffffff"/>
        <path d="M49.2047 13.8743V12.48H51.6316V13.2114L52.2438 13.8743H55.9608L56.573 13.2114V11.9771L55.939 11.3143H51.2381L49.2921 9.25714V6.69714L51.2818 4.61714H56.7698L58.7813 6.74286V8.13714H56.3544V7.40571L55.7422 6.74286H52.3313L51.7191 7.40571V8.54857L52.3532 9.21143H57.0322L59 11.2914V13.92L57.0103 16H51.2162L49.2047 13.8743Z" fill="#ffffff"/>
        <defs>
            <linearGradient id="paint0_linear_21_12729" x1="-6.82717e-07" y1="6.50001" x2="62" y2="13.5" gradientUnits="userSpaceOnUse">
            <stop stop-color="white"/>
            <stop offset="1" stop-color="white" stop-opacity="0"/>
            </linearGradient>
            <linearGradient id="paint1_linear_21_12729" x1="-6.82717e-07" y1="6.50001" x2="62" y2="13.5" gradientUnits="userSpaceOnUse">
            <stop stop-color="white"/>
            <stop offset="1" stop-color="white" stop-opacity="0"/>
            </linearGradient>
            <linearGradient id="paint2_linear_21_12729" x1="-6.82717e-07" y1="6.50001" x2="62" y2="13.5" gradientUnits="userSpaceOnUse">
            <stop stop-color="white"/>
            <stop offset="1" stop-color="white" stop-opacity="0"/>
            </linearGradient>
            <linearGradient id="paint3_linear_21_12729" x1="-6.82717e-07" y1="6.50001" x2="62" y2="13.5" gradientUnits="userSpaceOnUse">
            <stop stop-color="white"/>
            <stop offset="1" stop-color="white" stop-opacity="0"/>
            </linearGradient>
            <linearGradient id="paint4_linear_21_12729" x1="-6.82717e-07" y1="6.50001" x2="62" y2="13.5" gradientUnits="userSpaceOnUse">
            <stop stop-color="white"/>
            <stop offset="1" stop-color="white" stop-opacity="0"/>
            </linearGradient>
        </defs>
    </g>

</svg>